<?xml version="1.0" standalone="no"?>
<!DOCTYPE svg PUBLIC "-//W3C//DTD SVG 20010904//EN"
 "http://www.w3.org/TR/2001/REC-SVG-20010904/DTD/svg10.dtd">
<svg version="1.0" xmlns="http://www.w3.org/2000/svg"
 width="718.000000pt" height="718.000000pt" viewBox="0 0 718.000000 718.000000"
 preserveAspectRatio="xMidYMid meet">
<metadata>
Created by potrace 1.14, written by Peter Selinger 2001-2017
</metadata>
<g transform="translate(0.000000,718.000000) scale(0.100000,-0.100000)"
fill="#000000" stroke="none">
<path d="M5538 6745 c-1 -1 -28 -5 -58 -8 -161 -17 -437 -97 -624 -182 -17 -7
-53 -23 -81 -36 -217 -95 -513 -263 -755 -428 -69 -47 -129 -89 -135 -93 -5
-5 -64 -49 -130 -99 -66 -49 -128 -96 -138 -104 -9 -8 -19 -15 -22 -15 -2 0
-15 -10 -29 -22 -13 -13 -30 -28 -38 -33 -34 -26 -224 -180 -228 -185 -3 -3
-27 -24 -55 -45 -27 -22 -54 -45 -60 -51 -5 -6 -37 -33 -70 -60 -32 -27 -67
-56 -76 -64 -9 -8 -31 -28 -50 -44 -341 -286 -923 -854 -1226 -1196 -105 -118
-254 -297 -283 -340 -8 -13 -20 -28 -25 -34 -26 -27 -135 -185 -135 -194 0 -5
-7 -13 -16 -16 -8 -3 -12 -10 -9 -16 3 -5 1 -10 -4 -10 -6 0 -11 -6 -11 -14 0
-8 -4 -16 -9 -18 -11 -3 -154 -278 -146 -278 3 0 -1 -13 -10 -30 -9 -16 -13
-30 -9 -30 4 0 2 -6 -4 -12 -5 -7 -13 -29 -18 -48 -4 -19 -9 -42 -11 -50 -13
-52 -17 -98 -17 -195 1 -108 4 -138 24 -190 5 -14 6 -25 2 -25 -4 0 -2 -4 3
-8 6 -4 21 -29 35 -57 70 -140 257 -259 471 -300 111 -22 368 -21 469 0 14 3
41 8 60 10 19 3 46 7 60 10 14 3 41 8 60 11 19 3 60 12 90 19 30 8 66 16 80
19 14 2 81 18 150 36 69 17 143 36 165 41 22 5 60 16 85 24 41 12 332 94 355
100 6 1 17 5 25 8 8 3 29 9 45 13 17 4 35 8 40 10 39 12 303 86 315 89 8 2 53
13 100 25 47 12 92 23 100 25 8 2 33 8 55 13 37 10 199 43 273 56 25 4 31 3
26 -7 -13 -22 -89 -132 -94 -137 -3 -3 -28 -34 -55 -70 -27 -36 -54 -70 -60
-76 -5 -6 -26 -30 -45 -54 -19 -24 -42 -51 -50 -60 -8 -9 -30 -34 -49 -55
-149 -174 -373 -407 -735 -765 -646 -639 -863 -857 -901 -905 -22 -27 -42 -52
-45 -55 -5 -5 -17 -21 -97 -136 -56 -80 -44 -79 142 12 116 57 288 162 370
227 6 4 103 74 216 156 252 180 363 263 367 273 2 5 10 8 17 8 7 0 15 3 17 8
2 4 64 54 138 112 74 58 144 112 155 121 11 10 56 46 100 81 96 76 101 80 190
155 39 33 81 68 94 79 13 10 35 30 50 44 14 14 60 54 101 90 130 113 379 361
484 481 127 146 128 147 182 227 24 37 48 72 52 77 24 33 41 65 35 65 -5 0 -3
4 3 8 19 12 67 145 68 189 0 24 3 43 7 43 6 0 4 59 -6 119 -16 106 -94 215
-189 263 -44 23 -146 59 -146 53 0 -3 -11 0 -24 5 -72 27 -414 30 -546 5 -9
-2 -41 -6 -71 -10 -30 -4 -72 -10 -94 -15 -22 -5 -56 -11 -75 -15 -19 -3 -48
-8 -65 -12 -16 -4 -33 -6 -37 -5 -4 1 -18 -2 -31 -7 -13 -5 -39 -12 -58 -15
-19 -3 -63 -12 -99 -20 -66 -15 -101 -23 -155 -33 -34 -6 -41 -7 -75 -16 -14
-4 -36 -9 -50 -11 -14 -2 -72 -14 -130 -26 -171 -36 -418 -83 -490 -95 -19 -3
-42 -8 -50 -10 -8 -2 -35 -6 -60 -9 -25 -3 -54 -7 -65 -10 -11 -2 -54 -9 -95
-15 -69 -10 -112 -15 -227 -26 l-43 -4 17 27 c37 58 147 207 155 210 4 2 8 10
8 17 0 7 4 15 8 17 4 2 29 31 55 65 26 34 53 68 60 75 7 7 28 33 47 58 19 25
40 51 47 58 7 7 29 34 50 60 21 26 41 49 44 52 3 3 50 57 104 120 106 123 153
176 198 222 15 16 27 31 27 34 0 2 12 17 28 32 15 16 70 75 122 132 52 58 109
119 125 136 17 18 84 90 150 160 146 156 563 574 662 664 130 118 148 135 218
195 38 33 75 65 82 70 6 6 26 21 44 35 18 14 40 32 48 41 9 8 39 33 66 55 28
21 52 41 55 44 3 3 23 19 45 35 41 30 68 52 89 70 6 6 24 19 41 29 16 11 34
23 40 28 5 4 28 22 50 38 22 16 45 33 50 37 45 34 197 133 205 133 6 0 10 5
10 10 0 6 6 10 14 10 8 0 16 4 18 8 2 5 35 26 73 47 39 21 72 41 75 45 19 22
297 146 390 175 89 27 110 29 220 30 118 0 153 -12 182 -62 22 -38 19 -172 -7
-258 -33 -112 -127 -332 -148 -346 -5 -3 -9 -10 -9 -15 -1 -41 -188 -326 -304
-463 -143 -169 -275 -310 -493 -527 -109 -108 -208 -230 -196 -242 6 -7 118
21 165 41 39 16 101 50 254 141 17 10 33 22 34 27 2 5 8 9 13 9 9 0 209 140
235 165 6 5 36 30 65 55 187 157 381 357 509 526 25 32 47 61 50 64 3 3 10 13
15 22 6 9 26 40 46 70 122 179 212 393 237 563 9 64 5 207 -8 255 -16 66 -51
152 -69 174 -9 10 -15 20 -13 22 1 2 -15 28 -37 57 -113 154 -293 235 -533
242 -58 2 -108 2 -110 0z"/>
</g>
</svg>
